<svg width="511" height="125" viewBox="0 0 511 125" fill="none" xmlns="http://www.w3.org/2000/svg">
<path fill-rule="evenodd" clip-rule="evenodd" d="M442.319 48.5609C441.743 48.9183 440.998 49.0176 440.664 48.7861C440.329 48.5467 440.8 48.2584 441.708 48.133C442.716 48.0031 442.953 48.1692 442.319 48.5609ZM433.59 49.5002C433.119 49.5832 432.428 49.3053 432.056 48.886C431.681 48.4672 431.757 48.054 432.228 47.971C432.7 47.8877 433.394 48.165 433.769 48.5839C434.142 49.0032 434.063 49.4169 433.59 49.5002ZM397.703 50.5255C395.566 50.9023 394.196 49.7822 395.437 48.676C395.908 48.2626 397.022 48.4312 397.916 49.057C399.421 50.1133 399.404 50.2256 397.703 50.5255ZM383.645 33.5141C381.329 33.9837 380.615 33.694 381.744 32.7515C382.059 32.4854 383.144 32.4407 384.154 32.6542C385.756 32.99 385.69 33.1002 383.645 33.5141ZM376.409 35.0512C372.891 35.9993 367.392 36.0203 369.571 35.0765C371.454 34.2594 380.22 32.9057 380.309 33.4122C380.367 33.7219 378.61 34.458 376.409 35.0512ZM327.117 68.2422C324.441 68.7329 321.945 68.7865 321.57 68.3677C321.195 67.9488 321.198 67.5272 321.573 67.4318C321.947 67.3338 323.634 66.8658 325.313 66.3807C327.116 65.8628 329.116 65.8833 330.18 66.4312C331.805 67.2612 331.494 67.4466 327.117 68.2422ZM293.061 62.8716C292.371 63.8566 285.911 65.1075 266.32 68.0531C264.188 68.3729 261.602 68.3333 260.565 67.9699C259.53 67.5982 255.394 67.8079 251.372 68.4263C241.714 69.9161 239.935 70.07 238.619 69.5159C238.012 69.2632 236.944 69.3983 236.244 69.8122C235.408 70.3192 234.892 70.1092 234.731 69.1995C234.598 68.4422 233.91 67.9266 233.205 68.051C232.499 68.1755 231.841 67.8438 231.748 67.314C231.629 66.6421 232.866 66.312 235.755 66.237C239.776 66.1355 247.757 64.7576 257.261 62.5302C260.13 61.8591 262.863 61.7795 264.696 62.3223C266.291 62.7953 270.727 62.8072 274.549 62.3463C278.376 61.8902 282.015 61.7974 282.645 62.1366C283.798 62.7648 286.627 62.7615 291.283 62.1272C293.114 61.8736 293.612 62.0842 293.061 62.8716ZM210.698 35.4645C209.109 37.1223 204.892 38.1456 203.961 37.0973C203.629 36.7242 200.584 36.8641 197.195 37.411C193.805 37.9528 190.828 38.2539 190.578 38.0767C190.068 37.7191 194.321 35.6208 195.682 35.5592C196.163 35.5357 200.059 35.1713 204.341 34.7493C211.275 34.0702 211.963 34.1462 210.698 35.4645ZM148.84 46.6007C145.42 47.1799 142.562 47.3081 142.486 46.8765C142.41 46.4501 143.235 45.9423 144.318 45.7514C145.401 45.5604 146.597 44.9577 146.977 44.4192C147.99 42.9721 162.364 39.4197 162.566 40.5672C162.849 42.1721 155.264 45.5054 148.84 46.6007ZM139.325 43.9727C138.383 44.8289 138.423 45.2828 139.552 46.5467C141.248 48.4408 140.336 48.9054 130.234 51.2674C126.382 52.1652 123.208 52.7489 123.174 52.5603C123.07 51.9685 128.107 48.8445 132.153 46.9906C134.298 46.0049 136.198 44.8304 136.378 44.383C136.559 43.9274 137.551 43.4168 138.586 43.2423C140.105 42.9851 140.244 43.1283 139.325 43.9727ZM203.9 14.9592C205.018 14.7834 205.009 14.9634 203.856 15.9316C203.083 16.5847 202.261 16.9829 202.024 16.8169C201.312 16.3162 202.451 15.1906 203.9 14.9592ZM207.616 13.3948C208.42 13.2531 208.653 12.3993 208.285 10.9345C207.827 9.10732 208.177 8.47542 210.166 7.51447C213.36 5.98393 215.134 6.35602 214.956 8.53519C214.853 9.78174 215.32 10.2511 216.627 10.2125C217.627 10.1854 218.662 10.5705 218.928 11.0672C219.567 12.2602 216.721 13.5294 211.183 14.5194C208.709 14.9663 206.621 14.9427 206.537 14.4698C206.454 13.9994 206.936 13.5147 207.616 13.3948ZM234.158 13.3543C236.041 13.0303 236.744 13.0901 235.715 13.482C234.686 13.8739 233.142 14.1382 232.285 14.0682C231.428 13.9981 232.272 13.6787 234.158 13.3543ZM244.826 12.5126L250.763 12.3797L246.419 13.9477C243.212 15.1022 241.685 15.2861 240.587 14.6617C237.879 13.1193 238.818 12.6393 244.826 12.5126ZM255.603 11.1876C257.94 10.7355 260.79 9.45754 262.379 8.15131C265.433 5.65694 268.016 4.89234 269.143 6.15669C269.591 6.66115 271 6.56725 272.687 5.93402C275.524 4.86632 276.381 5.42131 274.981 7.42428C274.429 8.21167 274.521 8.64053 275.309 8.95456C275.969 9.2219 276.467 8.64384 276.56 7.50827C276.683 6.00222 277.379 5.50643 280.039 5.03752C283.755 4.38222 284.549 5.41196 281.908 7.46584C280.947 8.20832 279.994 9.21045 279.787 9.68396C279.582 10.1678 277.904 10.8074 276.062 11.1108C274.221 11.4141 269.144 12.272 264.785 13.014C260.423 13.7539 256.793 14.0261 256.721 13.6126C256.648 13.1991 255.46 12.6571 254.084 12.412C251.768 12.0023 251.884 11.9072 255.603 11.1876ZM285.527 4.66696C287.565 3.44151 292.765 2.66055 292.923 3.55733C292.997 3.97601 291.763 4.70249 290.181 5.17855L290.187 5.17763C288.61 5.6502 286.598 5.91975 285.722 5.77308C284.199 5.5272 284.19 5.47293 285.527 4.66696ZM297.207 9.04009C300.115 7.57868 301.18 7.44961 304.727 8.1351C310.748 9.29053 310.835 10.2052 305.025 11.2297C302.224 11.7236 298.559 11.8128 296.878 11.4351L293.819 10.7407L297.207 9.04009ZM509.3 58.4172C508.584 58.2983 506.997 57.443 505.772 56.5105C504.548 55.5858 503.009 54.8952 502.352 54.9791C501.693 55.0685 499.257 54.5201 496.939 53.7644C494.617 53.0066 491.575 52.1334 490.177 51.823C488.774 51.5134 487.653 50.7784 487.68 50.1901C487.707 49.6043 486.039 48.0918 483.97 46.8337C479.601 44.1773 479.904 42.1786 484.43 43.8054C486.616 44.5925 487.718 44.5714 488.648 43.7278C490.543 42.0188 489.382 41.1789 485.581 41.5027C483.707 41.6653 481.539 41.4294 480.762 40.9854C478.72 39.8159 477.241 39.8634 469.154 41.3161C465.164 42.0356 461.451 42.3919 460.905 42.1045C460.356 41.8176 457.394 41.9774 454.321 42.4605C451.129 42.9569 447.213 42.9518 445.186 42.4432C441.949 41.6309 441.751 41.4261 442.956 40.1744C445.132 37.9066 443.201 37.7301 438.499 39.777C431.992 42.6006 425.286 42.003 424.511 38.5182C424.437 38.1715 428.306 37.2922 433.112 36.562C439.082 35.6586 441.901 34.9056 442.01 34.1935C442.098 33.621 441.679 33.2953 441.078 33.4572C437.52 34.4522 427.658 34.3019 426.552 33.2393C425.474 32.2061 425.128 32.2404 424.078 33.4782C422.631 35.1856 409.223 38.1681 406.273 37.4412C404.677 37.051 404.837 36.9296 407.178 36.77C408.737 36.663 409.956 36.2507 409.888 35.8657C409.82 35.478 411.338 34.0538 413.258 32.7C417.494 29.7148 418.941 27.6022 417.007 27.229C416.282 27.0879 414.702 27.5583 413.502 28.2789C410.516 30.0551 404.835 30.9635 404.187 29.7668C403.839 29.1246 401.541 29.1487 397.509 29.8411C394.125 30.419 391.311 30.6461 391.259 30.3463C391.113 29.5646 386.334 29.6185 376.258 30.5078C371.437 30.9314 366.88 30.9275 366.134 30.5022C365.386 30.0718 362.595 29.8818 359.936 30.0707C357.279 30.2622 355.238 30.0812 355.404 29.6654C355.97 28.2359 353.466 28.0273 346.613 28.9213C342.833 29.4171 339.398 29.6845 338.979 29.5132C338.555 29.3481 332.84 29.9134 326.269 30.7763C311.374 32.7311 307.351 32.809 307.06 31.1602C306.896 30.2298 307.901 29.7035 310.883 29.1616C316.137 28.2007 318.229 25.7559 313.24 26.4011C301.058 27.9815 299.825 28.2709 300.484 29.3645C300.975 30.184 300.322 30.5788 297.939 30.9217C294.75 31.3801 288.561 31.2164 290.255 30.7177C290.745 30.5755 291.791 29.7541 292.583 28.8976C293.886 27.4875 293.245 27.4806 285.896 28.8163C281.425 29.634 277.16 30.2422 276.419 30.1702C270.512 29.6104 268.29 29.9169 267.539 31.4003C266.86 32.7351 265.686 33.0249 258.907 33.5139C254.591 33.8327 248.677 34.1026 245.766 34.123C242.856 34.1378 236.413 34.7941 231.451 35.5758C222.603 36.9735 218.837 36.7021 215.612 34.4435C213.691 33.1008 214.928 32.4562 221.118 31.5754C226.869 30.7612 231.49 28.4834 231.922 26.2487C232.27 24.4606 228.386 25.2227 226.988 27.2201C226.133 28.4474 224.711 28.8473 219.991 29.2052C216.736 29.4515 212.149 30.039 209.808 30.5157C206.085 31.2656 205.707 31.1936 206.84 29.9706C207.552 29.1921 208.101 28.3573 208.057 28.1092C208.014 27.8637 204.747 28.4397 200.795 29.3897C193.998 31.0252 193.505 31.0294 191.525 29.38C189.643 27.8199 189.347 27.8028 188.599 29.1978C187.951 30.418 186.37 30.9605 181.315 31.6974C171.929 33.0565 168.035 32.8557 168.184 31.0095C168.283 29.8009 167.706 29.6308 165.229 30.1342C163.538 30.4749 161.809 31.049 161.39 31.4106C160.969 31.7727 159.457 32.5484 158.027 33.1283C155.152 34.2934 153.127 33.2062 155.848 31.9562C158.143 30.9014 156.928 29.7539 153.431 29.6724C151.697 29.6343 150.848 29.2484 151.256 28.6862C151.627 28.165 153.539 27.7799 155.63 27.8004C157.975 27.8211 159.614 27.4416 160.084 26.7697C160.609 26.0245 161.711 25.8541 163.788 26.2073C167.166 26.7762 181.902 24.4017 190.621 21.8809C196.357 20.2247 200.138 20.2268 201.885 21.8935C202.394 22.3818 202.887 22.1537 203.264 21.2666C203.773 20.0468 205.349 19.7956 215.806 19.2229C227.94 18.565 229.784 18.7302 227.999 20.3213C227.276 20.9683 227.578 21.2589 229.095 21.3857C230.244 21.4789 231.248 21.158 231.327 20.6671C231.403 20.1741 231.847 19.9279 232.317 20.1168C234.188 20.8581 251.499 18.0988 252.527 16.8863C253.337 15.9308 253.604 15.9663 253.798 17.0646C253.933 17.8296 254.376 18.3963 254.787 18.3238C255.196 18.2518 259.029 18.1861 263.303 18.1813C267.578 18.171 274.036 17.5732 277.656 16.855C281.277 16.1419 284.606 15.696 285.054 15.8648C285.505 16.0358 292.75 15.8617 301.158 15.4769C312.717 14.9443 316.987 14.4473 318.683 13.4447C320.337 12.4601 320.973 12.3748 321.102 13.1061C321.526 15.4695 341.071 14.6027 342.793 12.1432C343.517 11.1096 341.485 10.101 339.407 10.4674C338.174 10.6847 335.917 10.7124 334.395 10.5303C325.394 9.44474 323.012 9.41704 317.556 10.3631C312.118 11.3059 311.47 11.2391 310.958 9.68247C310.07 6.97442 313.738 4.84878 317.418 5.93989C320 6.70521 320.456 6.61938 322.136 5.04134C323.298 3.94924 324.936 3.31388 326.515 3.34998C327.898 3.38316 329.188 3.01727 329.38 2.53829C329.881 1.28541 327.062 0.604731 322.013 0.756957C319.595 0.831416 317.263 0.749759 316.828 0.581257C315.198 -0.0639867 308.011 1.2059 306.179 2.46695C304.608 3.54607 304.077 3.54113 303.193 2.45787C302.433 1.53136 301.523 1.40399 300.112 2.03376C298.89 2.58238 298.044 2.56098 297.942 1.97949C297.85 1.46003 296.503 1.25522 294.947 1.52955C293.394 1.80343 291.681 1.71897 291.144 1.34478C290.606 0.967994 285.513 1.26905 279.824 2.01102C274.139 2.75771 267.104 3.39324 264.197 3.42354C256.747 3.50338 252.188 4.44313 250.51 6.24722C248.333 8.58711 244.37 9.0566 243.461 7.07444C242.715 5.45533 240.714 5.15785 240.145 6.58524C239.983 6.99491 238.75 7.47071 237.409 7.64596C236.068 7.8212 233.516 8.15924 231.737 8.39554C229.572 8.68939 228.431 8.427 228.287 7.61033C228.115 6.63859 227.058 6.65456 223.221 7.68548L218.374 8.98777L220.131 6.96722C221.951 4.86625 221.295 2.73028 219.218 3.98112C218.568 4.37293 217.366 4.31044 216.55 3.84392C215.737 3.38517 214.887 3.25249 214.673 3.56213C214.456 3.87221 212.999 3.83325 211.437 3.48247C209.525 3.04956 207.795 3.22673 206.136 4.03615C204.473 4.85166 203.42 4.95731 202.899 4.37242C202.371 3.78069 201.132 3.91916 198.96 4.82185C197.219 5.54446 191.268 6.96152 185.74 7.9656C175.831 9.77402 175.679 9.77156 175.34 7.84877C174.939 5.5745 172.774 5.59654 171.975 7.88251C171.285 9.86414 169.078 9.05691 169.255 6.88594C169.407 5.00168 168.212 4.82608 159.919 5.52087C152.973 6.10077 133.496 9.43915 127.772 11.0267C125.459 11.6744 120.143 13.0807 115.963 14.1589C111.418 15.3281 107.884 16.7026 107.182 17.5699C106.4 18.5338 103.061 19.6795 97.2233 20.9833C92.3952 22.0585 88.1311 23.386 87.7416 23.9423C87.3589 24.4921 85.578 25.1978 83.7896 25.5132C81.4662 25.9228 80.5989 26.4595 80.7607 27.377C80.9885 28.6692 80.171 29.1411 77.3561 29.347C76.5166 29.407 75.915 29.9395 76.0193 30.5313C76.1278 31.1464 75.5994 31.0211 74.7844 30.2374C73.4247 28.9343 73.0512 28.9922 66.4028 31.5315C62.5727 32.9929 58.8526 34.2165 58.132 34.2556C56.2864 34.3519 51.051 36.4875 45.4324 39.4421C42.8027 40.8198 39.6344 42.1352 38.3939 42.354C37.1534 42.5727 35.7562 43.2934 35.2926 43.9587C34.8239 44.6249 34.3889 44.8482 34.3205 44.4605C34.2527 44.0755 33.6392 44.4048 32.9541 45.1891C32.1103 46.1613 31.8582 46.2431 32.166 45.4347C32.4849 44.6137 31.9567 44.3684 30.4293 44.6377C29.119 44.8688 28.3229 45.5074 28.4492 46.2233C28.7887 48.1487 24.5083 50.1239 22.3263 49.0537C19.5076 47.6667 18.2201 48.2988 18.6703 50.8522L19.0763 53.1549L16.9989 51.5892C14.2827 49.5446 12.6936 49.9021 11.4292 52.8564C10.86 54.1773 9.52033 55.6473 8.45096 56.1263C6.22799 57.1205 6.21545 58.7722 8.41648 60.3133C9.24734 60.8996 10.0278 61.9558 10.1522 62.6614C10.2771 63.3695 11.2254 64.063 12.2544 64.2013C13.2891 64.3413 13.9913 64.6519 13.8198 64.9033C13.4128 65.4813 8.6701 64.2604 8.54388 63.5445C8.44863 63.0044 3.06484 64.2681 1.12173 65.2929C-0.0396335 65.9001 0.150073 68.185 1.40204 68.681C1.86674 68.8682 2.69873 70.0353 3.25662 71.2799C3.80843 72.5203 5.36483 74.5616 6.71444 75.8079C8.06404 77.0542 9.46206 78.9528 9.81946 80.0276C10.4508 81.9308 11.6558 82.659 14.8544 83.057C16.0652 83.2139 16.5982 84.1965 17.145 87.2977C18.0473 92.4148 22.1201 101.7 24.1929 103.36C25.0619 104.057 26.8968 104.429 28.2666 104.187C31.2024 103.669 34.3122 104.531 34.5578 105.924C34.653 106.464 34.0811 107.905 33.2827 109.12L31.8327 111.339L34.447 114.484C35.8905 116.217 37.6464 117.546 38.3582 117.442C40.5882 117.108 43.3106 118.991 42.9922 120.646C42.5943 122.696 44.5954 124.267 47.048 123.835C48.1412 123.642 49.3224 123.812 49.6803 124.21C50.3815 124.998 55.1011 123.761 58.987 121.77C60.3267 121.086 63.5962 119.936 66.2574 119.206C71.1606 117.862 73.9237 115.941 76.9899 111.75C77.9263 110.471 79.1185 109.344 79.6406 109.252C80.1674 109.156 81.6427 108.259 82.9237 107.258C84.3517 106.137 88.0436 104.815 92.4758 103.836C96.451 102.957 102.52 101.335 105.97 100.236C109.419 99.1379 118.641 96.4911 126.461 94.3554C139.755 90.7269 140.801 90.5506 142.547 91.6443C144.247 92.7143 145.505 92.5376 156.751 89.6514C163.534 87.9064 169.468 86.0607 169.932 85.5472C171.421 83.8989 174.745 82.8198 176.049 83.5626C176.78 83.9772 178.633 83.8131 180.441 83.1719C182.161 82.5621 186.156 81.2341 189.315 80.2294C192.471 79.22 195.218 78.1626 195.418 77.8768C195.619 77.5911 196.697 78.1763 197.814 79.1785C200.086 81.2082 203.832 81.0113 206.511 78.7215C207.807 77.6083 208.249 77.5303 208.713 78.3332C209.029 78.8825 209.835 79.2387 210.502 79.1211C211.169 79.0035 211.533 78.4409 211.311 77.8752C211.011 77.0967 212.855 76.5371 218.642 75.6259C226.172 74.4421 228.586 74.259 239.553 74.0119C254.266 73.6879 257.686 73.346 259.637 72.0054C261.198 70.9255 261.801 70.8698 262.555 71.7148C263.349 72.6086 263.816 72.5369 265.403 71.2873C266.478 70.4475 268.158 69.914 269.281 70.0678C271.1 70.3066 271.155 70.4355 269.989 71.6511C268.89 72.7961 269.438 72.998 273.937 73.0973C276.806 73.1645 284.873 72.9917 291.868 72.7202C298.866 72.4457 307.157 72.1643 310.303 72.0998C313.448 72.0276 321.714 71.5906 328.677 71.1197C335.636 70.6467 341.933 70.3572 342.663 70.4763C343.397 70.5894 346.967 70.5542 350.596 70.3859C354.226 70.2255 360.155 69.9662 363.771 69.8162C367.385 69.6692 373.494 69.3621 377.337 69.1323C383.897 68.7402 389.738 68.6164 400.215 68.6583C402.645 68.6722 407.558 68.3629 411.131 67.9674C420.138 66.9867 415.968 66.4003 401.625 66.635C395.33 66.735 384.425 66.8671 377.39 66.9271C366.254 67.0174 339.082 67.926 337.12 68.2719C336.738 68.3393 335.822 67.5148 335.084 66.4405C333.937 64.7721 333.965 64.3089 335.279 63.2831C336.123 62.6146 337.957 61.7902 339.351 61.4406C341.013 61.0276 341.677 60.4575 341.276 59.7873C340.488 58.4767 349.735 57.3764 352.888 58.406C354.325 58.8775 359.613 58.3127 368.856 56.7017C376.453 55.3727 383.433 54.5311 384.366 54.8222C385.3 55.1133 387.896 55.1911 390.136 54.9881C395.434 54.5229 403.915 54.5196 412.82 54.9853C416.745 55.1939 421.784 55.2114 424.022 55.0273C426.257 54.8436 428.495 54.8541 428.998 55.0613C429.501 55.2576 433.816 55.3336 438.587 55.2198C448.624 54.9901 453.806 55.1024 458.853 55.6487C462.861 56.0879 468.804 56.2845 473.58 56.1378C475.305 56.0841 477.633 56.6357 478.748 57.3556C480.028 58.1931 482.009 58.4567 484.109 58.0759C489.159 57.1695 493.279 57.1891 497.305 58.1233C503.116 59.4809 509.66 60.0964 510.15 59.3385C510.399 58.9509 510.018 58.5412 509.3 58.4172Z" fill="#FFCD00"/>
</svg>
